<svg xmlns="http://www.w3.org/2000/svg" width="512" height="512" viewBox="0 0 512 512"><path d="M280.5,253.7L348.6,273.5L354.7,194.3Z" fill="rgb(188,230,25)" shape-rendering="crispEdges"/><path d="M354.7,194.3L282.9,161L280.5,253.7Z" fill="rgb(177,224,38)" shape-rendering="crispEdges"/><path d="M446.4,254.9L437.4,188.6L354.7,194.3Z" fill="rgb(172,216,0)" shape-rendering="crispEdges"/><path d="M354.7,194.3L340.4,71.6L282.9,161Z" fill="rgb(179,225,34)" shape-rendering="crispEdges"/><path d="M348.6,273.5L446.4,254.9L354.7,194.3Z" fill="rgb(195,235,29)" shape-rendering="crispEdges"/><path d="M280.5,253.7L339.7,361.1L348.6,273.5Z" fill="rgb(210,247,34)" shape-rendering="crispEdges"/><path d="M348.6,273.5L441.6,324.9L446.4,254.9Z" fill="rgb(191,227,0)" shape-rendering="crispEdges"/><path d="M187.1,319.5L240,353.7L280.5,253.7Z" fill="rgb(193,236,44)" shape-rendering="crispEdges"/><path d="M280.5,253.7L240,353.7L339.7,361.1Z" fill="rgb(194,232,3)" shape-rendering="crispEdges"/><path d="M339.7,361.1L441.6,324.9L348.6,273.5Z" fill="rgb(218,250,20)" shape-rendering="crispEdges"/><path d="M282.9,161L176.3,261.8L280.5,253.7Z" fill="rgb(181,232,58)" shape-rendering="crispEdges"/><path d="M407.2,93.1L340.4,71.6L354.7,194.3Z" fill="rgb(194,236,38)" shape-rendering="crispEdges"/><path d="M282.9,161L171.8,153.8L176.3,261.8Z" fill="rgb(144,203,41)" shape-rendering="crispEdges"/><path d="M437.4,188.6L407.2,93.1L354.7,194.3Z" fill="rgb(167,214,12)" shape-rendering="crispEdges"/><path d="M176.3,261.8L187.1,319.5L280.5,253.7Z" fill="rgb(164,213,27)" shape-rendering="crispEdges"/><path d="M250.5,68L171.8,153.8L282.9,161Z" fill="rgb(155,208,35)" shape-rendering="crispEdges"/><path d="M340.4,71.6L250.5,68L282.9,161Z" fill="rgb(186,231,41)" shape-rendering="crispEdges"/><path d="M262.1,433.4L347.7,437.8L339.7,361.1Z" fill="rgb(193,226,0)" shape-rendering="crispEdges"/><path d="M339.7,361.1L455.9,422.1L441.6,324.9Z" fill="rgb(222,253,11)" shape-rendering="crispEdges"/><path d="M262.1,433.4L339.7,361.1L240,353.7Z" fill="rgb(190,227,0)" shape-rendering="crispEdges"/><path d="M250.5,68L178.8,80.3L171.8,153.8Z" fill="rgb(154,208,37)" shape-rendering="crispEdges"/><path d="M180,437.6L262.1,433.4L240,353.7Z" fill="rgb(198,239,41)" shape-rendering="crispEdges"/><path d="M548.4,264L532.9,190.5L446.4,254.9Z" fill="rgb(201,242,41)" shape-rendering="crispEdges"/><path d="M446.4,254.9L532.9,190.5L437.4,188.6Z" fill="rgb(195,238,44)" shape-rendering="crispEdges"/><path d="M437.4,188.6L534.4,55.9L407.2,93.1Z" fill="rgb(186,227,19)" shape-rendering="crispEdges"/><path d="M441.6,324.9L548.4,264L446.4,254.9Z" fill="rgb(188,225,0)" shape-rendering="crispEdges"/><path d="M547,370.4L548.4,264L441.6,324.9Z" fill="rgb(208,240,0)" shape-rendering="crispEdges"/><path d="M347.7,437.8L455.9,422.1L339.7,361.1Z" fill="rgb(219,249,0)" shape-rendering="crispEdges"/><path d="M176.3,261.8L92.2,252.5L187.1,319.5Z" fill="rgb(172,223,49)" shape-rendering="crispEdges"/><path d="M187.1,319.5L180,437.6L240,353.7Z" fill="rgb(187,231,36)" shape-rendering="crispEdges"/><path d="M171.8,153.8L92.2,252.5L176.3,261.8Z" fill="rgb(155,212,48)" shape-rendering="crispEdges"/><path d="M78.7,162.2L92.2,252.5L171.8,153.8Z" fill="rgb(147,204,38)" shape-rendering="crispEdges"/><path d="M407.2,93.1L363.5,-4L340.4,71.6Z" fill="rgb(197,233,0)" shape-rendering="crispEdges"/><path d="M340.4,71.6L237,-12.4L250.5,68Z" fill="rgb(203,243,44)" shape-rendering="crispEdges"/><path d="M250.5,68L237,-12.4L178.8,80.3Z" fill="rgb(177,224,34)" shape-rendering="crispEdges"/><path d="M417.5,-2.6L363.5,-4L407.2,93.1Z" fill="rgb(214,247,16)" shape-rendering="crispEdges"/><path d="M91.5,417.3L180,437.6L187.1,319.5Z" fill="rgb(184,229,39)" shape-rendering="crispEdges"/><path d="M262.1,433.4L357.2,499.6L347.7,437.8Z" fill="rgb(214,246,5)" shape-rendering="crispEdges"/><path d="M534.4,55.9L417.5,-2.6L407.2,93.1Z" fill="rgb(210,245,23)" shape-rendering="crispEdges"/><path d="M80.5,96.5L78.7,162.2L171.8,153.8Z" fill="rgb(173,228,62)" shape-rendering="crispEdges"/><path d="M363.5,-4L237,-12.4L340.4,71.6Z" fill="rgb(214,249,30)" shape-rendering="crispEdges"/><path d="M178.8,80.3L80.5,96.5L171.8,153.8Z" fill="rgb(155,210,43)" shape-rendering="crispEdges"/><path d="M344.4,-88.7L237,-12.4L363.5,-4Z" fill="rgb(194,228,0)" shape-rendering="crispEdges"/><path d="M455.9,422.1L547,370.4L441.6,324.9Z" fill="rgb(198,229,0)" shape-rendering="crispEdges"/><path d="M248.2,520.4L357.2,499.6L262.1,433.4Z" fill="rgb(191,227,0)" shape-rendering="crispEdges"/><path d="M347.7,437.8L426,514.2L455.9,422.1Z" fill="rgb(211,241,0)" shape-rendering="crispEdges"/><path d="M455.9,422.1L538.6,448.8L547,370.4Z" fill="rgb(220,250,3)" shape-rendering="crispEdges"/><path d="M640.7,147.4L534.4,55.9L532.9,190.5Z" fill="rgb(177,221,13)" shape-rendering="crispEdges"/><path d="M532.9,190.5L534.4,55.9L437.4,188.6Z" fill="rgb(183,227,33)" shape-rendering="crispEdges"/><path d="M606.6,341.5L599.2,269.4L548.4,264Z" fill="rgb(210,245,24)" shape-rendering="crispEdges"/><path d="M548.4,264L599.2,269.4L532.9,190.5Z" fill="rgb(181,221,0)" shape-rendering="crispEdges"/><path d="M149.2,10L80.5,96.5L178.8,80.3Z" fill="rgb(169,219,39)" shape-rendering="crispEdges"/><path d="M237,-12.4L149.2,10L178.8,80.3Z" fill="rgb(179,227,44)" shape-rendering="crispEdges"/><path d="M50.5,359.7L187.1,319.5L92.2,252.5Z" fill="rgb(182,226,30)" shape-rendering="crispEdges"/><path d="M50.5,359.7L91.5,417.3L187.1,319.5Z" fill="rgb(180,222,0)" shape-rendering="crispEdges"/><path d="M180,437.6L248.2,520.4L262.1,433.4Z" fill="rgb(192,233,30)" shape-rendering="crispEdges"/><path d="M194.6,539.3L248.2,520.4L180,437.6Z" fill="rgb(173,217,2)" shape-rendering="crispEdges"/><path d="M371.8,593.7L426,514.2L357.2,499.6Z" fill="rgb(221,252,7)" shape-rendering="crispEdges"/><path d="M357.2,499.6L426,514.2L347.7,437.8Z" fill="rgb(209,240,0)" shape-rendering="crispEdges"/><path d="M10.4,356.3L50.5,359.7L92.2,252.5Z" fill="rgb(202,239,23)" shape-rendering="crispEdges"/><path d="M10.1,177.1L92.2,252.5L78.7,162.2Z" fill="rgb(164,215,35)" shape-rendering="crispEdges"/><path d="M609.9,457L606.6,341.5L547,370.4Z" fill="rgb(203,234,0)" shape-rendering="crispEdges"/><path d="M547,370.4L606.6,341.5L548.4,264Z" fill="rgb(210,242,0)" shape-rendering="crispEdges"/><path d="M502.3,520.9L538.6,448.8L455.9,422.1Z" fill="rgb(218,249,0)" shape-rendering="crispEdges"/><path d="M-25.5,85.5L10.1,177.1L80.5,96.5Z" fill="rgb(186,231,37)" shape-rendering="crispEdges"/><path d="M80.5,96.5L10.1,177.1L78.7,162.2Z" fill="rgb(163,213,31)" shape-rendering="crispEdges"/><path d="M433.1,-114.9L344.4,-88.7L417.5,-2.6Z" fill="rgb(210,241,0)" shape-rendering="crispEdges"/><path d="M417.5,-2.6L344.4,-88.7L363.5,-4Z" fill="rgb(199,231,0)" shape-rendering="crispEdges"/><path d="M177.2,-95.6L100.3,-15.5L149.2,10Z" fill="rgb(178,223,24)" shape-rendering="crispEdges"/><path d="M619,59.5L553.5,-0.9L534.4,55.9Z" fill="rgb(195,230,0)" shape-rendering="crispEdges"/><path d="M534.4,55.9L553.5,-0.9L417.5,-2.6Z" fill="rgb(196,229,0)" shape-rendering="crispEdges"/><path d="M606.6,341.5L640.7,147.4L599.2,269.4Z" fill="rgb(186,226,0)" shape-rendering="crispEdges"/><path d="M599.2,269.4L640.7,147.4L532.9,190.5Z" fill="rgb(188,232,38)" shape-rendering="crispEdges"/><path d="M177.2,-95.6L149.2,10L237,-12.4Z" fill="rgb(176,221,26)" shape-rendering="crispEdges"/><path d="M149.2,10L100.3,-15.5L80.5,96.5Z" fill="rgb(176,220,18)" shape-rendering="crispEdges"/><path d="M344.4,-88.7L271.7,-97.6L237,-12.4Z" fill="rgb(207,243,23)" shape-rendering="crispEdges"/><path d="M101.4,522.5L194.6,539.3L180,437.6Z" fill="rgb(182,228,38)" shape-rendering="crispEdges"/><path d="M248.2,520.4L371.8,593.7L357.2,499.6Z" fill="rgb(221,252,22)" shape-rendering="crispEdges"/><path d="M50.5,359.7L-5,443L91.5,417.3Z" fill="rgb(192,227,0)" shape-rendering="crispEdges"/><path d="M91.5,417.3L101.4,522.5L180,437.6Z" fill="rgb(190,233,34)" shape-rendering="crispEdges"/><path d="M-33.3,261.8L10.4,356.3L92.2,252.5Z" fill="rgb(200,237,20)" shape-rendering="crispEdges"/><path d="M538.6,448.8L609.9,457L547,370.4Z" fill="rgb(206,237,0)" shape-rendering="crispEdges"/><path d="M426,514.2L502.3,520.9L455.9,422.1Z" fill="rgb(218,248,0)" shape-rendering="crispEdges"/><path d="M415.3,630L502.3,520.9L426,514.2Z" fill="rgb(199,230,0)" shape-rendering="crispEdges"/><path d="M640.7,147.4L619,59.5L534.4,55.9Z" fill="rgb(191,230,10)" shape-rendering="crispEdges"/><path d="M10.1,177.1L-33.3,261.8L92.2,252.5Z" fill="rgb(185,228,30)" shape-rendering="crispEdges"/><path d="M-77.5,228.3L-33.3,261.8L10.1,177.1Z" fill="rgb(177,219,0)" shape-rendering="crispEdges"/><path d="M271.7,-97.6L177.2,-95.6L237,-12.4Z" fill="rgb(192,234,31)" shape-rendering="crispEdges"/><path d="M521,-98.6L433.1,-114.9L417.5,-2.6Z" fill="rgb(208,239,0)" shape-rendering="crispEdges"/><path d="M344.4,-88.7L433.1,-114.9L271.7,-97.6Z" fill="rgb(207,238,0)" shape-rendering="crispEdges"/><path d="M271.7,-97.6L74.3,-126L177.2,-95.6Z" fill="rgb(176,222,33)" shape-rendering="crispEdges"/><path d="M521,-98.6L417.5,-2.6L553.5,-0.9Z" fill="rgb(203,234,0)" shape-rendering="crispEdges"/><path d="M502.3,520.9L609.9,457L538.6,448.8Z" fill="rgb(206,237,0)" shape-rendering="crispEdges"/><path d="M606.6,341.5L644.5,535.6L640.7,147.4Z" fill="rgb(209,239,0)" shape-rendering="crispEdges"/><path d="M231.4,639.5L371.8,593.7L248.2,520.4Z" fill="rgb(195,231,0)" shape-rendering="crispEdges"/><path d="M2.6,498.7L101.4,522.5L91.5,417.3Z" fill="rgb(209,246,33)" shape-rendering="crispEdges"/><path d="M231.4,639.5L415.3,630L371.8,593.7Z" fill="rgb(203,234,0)" shape-rendering="crispEdges"/><path d="M640.7,147.4L623.5,0.7L619,59.5Z" fill="rgb(207,243,31)" shape-rendering="crispEdges"/><path d="M619,59.5L623.5,0.7L553.5,-0.9Z" fill="rgb(214,246,4)" shape-rendering="crispEdges"/><path d="M-42.2,10.4L80.5,96.5L100.3,-15.5Z" fill="rgb(203,240,28)" shape-rendering="crispEdges"/><path d="M-42.2,10.4L-25.5,85.5L80.5,96.5Z" fill="rgb(194,232,0)" shape-rendering="crispEdges"/><path d="M610,-127.9L521,-98.6L553.5,-0.9Z" fill="rgb(214,245,0)" shape-rendering="crispEdges"/><path d="M-125,363.4L-5,443L10.4,356.3Z" fill="rgb(206,237,0)" shape-rendering="crispEdges"/><path d="M10.4,356.3L-5,443L50.5,359.7Z" fill="rgb(194,227,0)" shape-rendering="crispEdges"/><path d="M-99.5,145.1L-77.5,228.3L10.1,177.1Z" fill="rgb(190,236,49)" shape-rendering="crispEdges"/><path d="M-33.3,261.8L-125,363.4L10.4,356.3Z" fill="rgb(201,233,0)" shape-rendering="crispEdges"/><path d="M231.4,639.5L248.2,520.4L194.6,539.3Z" fill="rgb(195,236,37)" shape-rendering="crispEdges"/><path d="M371.8,593.7L415.3,630L426,514.2Z" fill="rgb(199,230,0)" shape-rendering="crispEdges"/><path d="M502.3,520.9L644.5,535.6L609.9,457Z" fill="rgb(215,246,0)" shape-rendering="crispEdges"/><path d="M-5,443L2.6,498.7L91.5,417.3Z" fill="rgb(193,227,0)" shape-rendering="crispEdges"/><path d="M145.3,639.4L231.4,639.5L194.6,539.3Z" fill="rgb(180,225,32)" shape-rendering="crispEdges"/><path d="M-129.8,429.4L2.6,498.7L-5,443Z" fill="rgb(201,232,0)" shape-rendering="crispEdges"/><path d="M145.3,639.4L194.6,539.3L101.4,522.5Z" fill="rgb(173,218,17)" shape-rendering="crispEdges"/><path d="M-25.5,85.5L-99.5,145.1L10.1,177.1Z" fill="rgb(173,218,6)" shape-rendering="crispEdges"/><path d="M14.1,-86.7L-42.2,10.4L100.3,-15.5Z" fill="rgb(211,244,0)" shape-rendering="crispEdges"/><path d="M-88.9,55L-99.5,145.1L-25.5,85.5Z" fill="rgb(180,220,0)" shape-rendering="crispEdges"/><path d="M433.1,-114.9L74.3,-126L271.7,-97.6Z" fill="rgb(207,245,39)" shape-rendering="crispEdges"/><path d="M177.2,-95.6L74.3,-126L100.3,-15.5Z" fill="rgb(191,233,32)" shape-rendering="crispEdges"/><path d="M627.6,595.4L644.5,535.6L502.3,520.9Z" fill="rgb(219,249,0)" shape-rendering="crispEdges"/><path d="M609.9,457L644.5,535.6L606.6,341.5Z" fill="rgb(215,245,0)" shape-rendering="crispEdges"/><path d="M74.3,-126L14.1,-86.7L100.3,-15.5Z" fill="rgb(208,244,29)" shape-rendering="crispEdges"/><path d="M64.7,593.8L145.3,639.4L101.4,522.5Z" fill="rgb(182,223,0)" shape-rendering="crispEdges"/><path d="M2.6,498.7L64.7,593.8L101.4,522.5Z" fill="rgb(204,240,15)" shape-rendering="crispEdges"/><path d="M-103.5,14L-88.9,55L-42.2,10.4Z" fill="rgb(203,236,0)" shape-rendering="crispEdges"/><path d="M-42.2,10.4L-88.9,55L-25.5,85.5Z" fill="rgb(190,226,0)" shape-rendering="crispEdges"/><path d="M231.4,639.5L520.1,640.1L415.3,630Z" fill="rgb(214,245,0)" shape-rendering="crispEdges"/><path d="M415.3,630L520.1,640.1L502.3,520.9Z" fill="rgb(197,228,0)" shape-rendering="crispEdges"/><path d="M145.3,639.4L520.1,640.1L231.4,639.5Z" fill="rgb(208,243,14)" shape-rendering="crispEdges"/><path d="M640.7,147.4L610,-127.9L623.5,0.7Z" fill="rgb(207,239,0)" shape-rendering="crispEdges"/><path d="M623.5,0.7L610,-127.9L553.5,-0.9Z" fill="rgb(209,240,0)" shape-rendering="crispEdges"/><path d="M521,-98.6L610,-127.9L433.1,-114.9Z" fill="rgb(219,250,0)" shape-rendering="crispEdges"/><path d="M433.1,-114.9L610,-127.9L74.3,-126Z" fill="rgb(220,251,3)" shape-rendering="crispEdges"/><path d="M-99.5,145.1L-125,363.4L-77.5,228.3Z" fill="rgb(203,243,39)" shape-rendering="crispEdges"/><path d="M-77.5,228.3L-125,363.4L-33.3,261.8Z" fill="rgb(189,225,0)" shape-rendering="crispEdges"/><path d="M2.6,498.7L2.1,609.9L64.7,593.8Z" fill="rgb(198,232,0)" shape-rendering="crispEdges"/><path d="M520.1,640.1L627.6,595.4L502.3,520.9Z" fill="rgb(201,232,0)" shape-rendering="crispEdges"/><path d="M-88.9,55L-103.5,14L-99.5,145.1Z" fill="rgb(195,233,4)" shape-rendering="crispEdges"/><path d="M-99.5,145.1L-103.5,14L-125,363.4Z" fill="rgb(173,220,30)" shape-rendering="crispEdges"/><path d="M-116.6,-102.7L-103.5,14L-42.2,10.4Z" fill="rgb(212,243,0)" shape-rendering="crispEdges"/><path d="M-116.6,-102.7L-129.8,429.4L-125,363.4Z" fill="rgb(195,236,35)" shape-rendering="crispEdges"/><path d="M-125,363.4L-129.8,429.4L-5,443Z" fill="rgb(211,242,0)" shape-rendering="crispEdges"/><path d="M64.7,593.8L2.1,609.9L145.3,639.4Z" fill="rgb(193,231,0)" shape-rendering="crispEdges"/><path d="M-110.6,554.6L2.1,609.9L2.6,498.7Z" fill="rgb(220,250,0)" shape-rendering="crispEdges"/><path d="M-129.8,429.4L-110.6,554.6L2.6,498.7Z" fill="rgb(208,239,0)" shape-rendering="crispEdges"/><path d="M14.1,-86.7L-116.6,-102.7L-42.2,10.4Z" fill="rgb(205,236,0)" shape-rendering="crispEdges"/><path d="M-103.5,14L-116.6,-102.7L-125,363.4Z" fill="rgb(193,233,19)" shape-rendering="crispEdges"/><path d="M74.3,-126L-116.6,-102.7L14.1,-86.7Z" fill="rgb(209,240,0)" shape-rendering="crispEdges"/><path d="M-129.8,429.4L-133,590.5L-110.6,554.6Z" fill="rgb(221,251,5)" shape-rendering="crispEdges"/><path d="M-110.6,554.6L-133,590.5L2.1,609.9Z" fill="rgb(215,246,0)" shape-rendering="crispEdges"/><path d="M2.1,609.9L-133,590.5L145.3,639.4Z" fill="rgb(211,242,0)" shape-rendering="crispEdges"/></svg>