<svg xmlns="http://www.w3.org/2000/svg" width="512" height="512" viewBox="0 0 512 512"><path d="M243.8,264.2L268.5,328.9L355.5,248.9Z" fill="rgb(229,64,129)" shape-rendering="crispEdges"/><path d="M268.5,328.9L320.5,354.1L355.5,248.9Z" fill="rgb(208,48,124)" shape-rendering="crispEdges"/><path d="M355.5,248.9L281.3,141.5L243.8,264.2Z" fill="rgb(230,61,119)" shape-rendering="crispEdges"/><path d="M355.5,248.9L341.2,144.9L281.3,141.5Z" fill="rgb(226,60,117)" shape-rendering="crispEdges"/><path d="M152.8,180L161.5,273.2L243.8,264.2Z" fill="rgb(224,49,100)" shape-rendering="crispEdges"/><path d="M243.8,264.2L161.5,273.2L268.5,328.9Z" fill="rgb(229,60,119)" shape-rendering="crispEdges"/><path d="M243.9,451.4L351.5,433.5L320.5,354.1Z" fill="rgb(208,61,144)" shape-rendering="crispEdges"/><path d="M462.9,361.7L462.3,238.4L355.5,248.9Z" fill="rgb(210,62,144)" shape-rendering="crispEdges"/><path d="M243.9,451.4L320.5,354.1L268.5,328.9Z" fill="rgb(206,50,128)" shape-rendering="crispEdges"/><path d="M462.9,361.7L355.5,248.9L320.5,354.1Z" fill="rgb(203,53,136)" shape-rendering="crispEdges"/><path d="M355.5,248.9L444,155.6L341.2,144.9Z" fill="rgb(207,46,114)" shape-rendering="crispEdges"/><path d="M161.5,273.2L157.6,363.4L268.5,328.9Z" fill="rgb(217,50,112)" shape-rendering="crispEdges"/><path d="M281.3,141.5L152.8,180L243.8,264.2Z" fill="rgb(235,61,108)" shape-rendering="crispEdges"/><path d="M161.5,273.2L103.7,336.9L157.6,363.4Z" fill="rgb(214,45,102)" shape-rendering="crispEdges"/><path d="M351.5,433.5L462.9,361.7L320.5,354.1Z" fill="rgb(192,50,140)" shape-rendering="crispEdges"/><path d="M178.9,418.9L243.9,451.4L268.5,328.9Z" fill="rgb(199,41,118)" shape-rendering="crispEdges"/><path d="M157.6,363.4L178.9,418.9L268.5,328.9Z" fill="rgb(206,45,114)" shape-rendering="crispEdges"/><path d="M462.3,238.4L444,155.6L355.5,248.9Z" fill="rgb(194,37,116)" shape-rendering="crispEdges"/><path d="M444,155.6L364.7,82.7L341.2,144.9Z" fill="rgb(220,60,118)" shape-rendering="crispEdges"/><path d="M341.2,144.9L364.7,82.7L281.3,141.5Z" fill="rgb(215,47,101)" shape-rendering="crispEdges"/><path d="M281.3,141.5L146.9,80.6L152.8,180Z" fill="rgb(212,32,78)" shape-rendering="crispEdges"/><path d="M55.8,260.2L103.7,336.9L161.5,273.2Z" fill="rgb(231,60,104)" shape-rendering="crispEdges"/><path d="M157.6,363.4L83.3,442L178.9,418.9Z" fill="rgb(197,37,106)" shape-rendering="crispEdges"/><path d="M351.5,433.5L437.4,450.2L462.9,361.7Z" fill="rgb(178,46,144)" shape-rendering="crispEdges"/><path d="M410.1,533.6L437.4,450.2L351.5,433.5Z" fill="rgb(187,62,162)" shape-rendering="crispEdges"/><path d="M462.3,238.4L506.8,166L444,155.6Z" fill="rgb(198,50,127)" shape-rendering="crispEdges"/><path d="M444,155.6L448.9,76.3L364.7,82.7Z" fill="rgb(219,62,121)" shape-rendering="crispEdges"/><path d="M544.3,283.2L506.8,166L462.3,238.4Z" fill="rgb(200,58,143)" shape-rendering="crispEdges"/><path d="M364.7,82.7L247.7,50.9L281.3,141.5Z" fill="rgb(216,44,92)" shape-rendering="crispEdges"/><path d="M532.6,367.8L544.3,283.2L462.9,361.7Z" fill="rgb(178,49,149)" shape-rendering="crispEdges"/><path d="M462.9,361.7L544.3,283.2L462.3,238.4Z" fill="rgb(200,62,152)" shape-rendering="crispEdges"/><path d="M504.5,446L532.6,367.8L462.9,361.7Z" fill="rgb(178,56,159)" shape-rendering="crispEdges"/><path d="M86.8,149.8L55.8,260.2L152.8,180Z" fill="rgb(216,37,76)" shape-rendering="crispEdges"/><path d="M152.8,180L55.8,260.2L161.5,273.2Z" fill="rgb(228,52,94)" shape-rendering="crispEdges"/><path d="M517,95.5L448.9,76.3L444,155.6Z" fill="rgb(209,59,124)" shape-rendering="crispEdges"/><path d="M364.7,82.7L265.6,-29.4L247.7,50.9Z" fill="rgb(227,55,91)" shape-rendering="crispEdges"/><path d="M146.9,80.6L86.8,149.8L152.8,180Z" fill="rgb(237,62,88)" shape-rendering="crispEdges"/><path d="M247.7,50.9L146.9,80.6L281.3,141.5Z" fill="rgb(224,47,85)" shape-rendering="crispEdges"/><path d="M437.4,450.2L504.5,446L462.9,361.7Z" fill="rgb(181,58,161)" shape-rendering="crispEdges"/><path d="M150.9,524L254.3,537.9L243.9,451.4Z" fill="rgb(195,52,136)" shape-rendering="crispEdges"/><path d="M243.9,451.4L254.3,537.9L351.5,433.5Z" fill="rgb(194,52,141)" shape-rendering="crispEdges"/><path d="M437.4,450.2L410.1,533.6L504.5,446Z" fill="rgb(174,58,164)" shape-rendering="crispEdges"/><path d="M150.9,524L243.9,451.4L178.9,418.9Z" fill="rgb(201,52,129)" shape-rendering="crispEdges"/><path d="M254.3,537.9L351.4,544.8L351.5,433.5Z" fill="rgb(178,45,142)" shape-rendering="crispEdges"/><path d="M-5.7,418.3L83.3,442L103.7,336.9Z" fill="rgb(199,36,94)" shape-rendering="crispEdges"/><path d="M103.7,336.9L83.3,442L157.6,363.4Z" fill="rgb(224,64,118)" shape-rendering="crispEdges"/><path d="M351.4,544.8L410.1,533.6L351.5,433.5Z" fill="rgb(193,69,169)" shape-rendering="crispEdges"/><path d="M610.7,178.8L517,95.5L506.8,166Z" fill="rgb(207,63,137)" shape-rendering="crispEdges"/><path d="M506.8,166L517,95.5L444,155.6Z" fill="rgb(199,51,124)" shape-rendering="crispEdges"/><path d="M83.3,442L150.9,524L178.9,418.9Z" fill="rgb(195,42,114)" shape-rendering="crispEdges"/><path d="M145.4,-23.8L101.1,69L146.9,80.6Z" fill="rgb(225,48,66)" shape-rendering="crispEdges"/><path d="M146.9,80.6L101.1,69L86.8,149.8Z" fill="rgb(231,54,75)" shape-rendering="crispEdges"/><path d="M86.8,149.8L-24.9,241.1L55.8,260.2Z" fill="rgb(214,34,69)" shape-rendering="crispEdges"/><path d="M532.6,367.8L604.2,343.7L544.3,283.2Z" fill="rgb(197,68,164)" shape-rendering="crispEdges"/><path d="M544.3,283.2L610.7,178.8L506.8,166Z" fill="rgb(194,52,136)" shape-rendering="crispEdges"/><path d="M624.2,459.7L604.2,343.7L532.6,367.8Z" fill="rgb(183,63,166)" shape-rendering="crispEdges"/><path d="M365.6,-36.6L364.7,82.7L448.9,76.3Z" fill="rgb(209,47,98)" shape-rendering="crispEdges"/><path d="M365.6,-36.6L265.6,-29.4L364.7,82.7Z" fill="rgb(211,41,83)" shape-rendering="crispEdges"/><path d="M247.7,50.9L145.4,-23.8L146.9,80.6Z" fill="rgb(238,62,81)" shape-rendering="crispEdges"/><path d="M254.3,537.9L322.3,598.7L351.4,544.8Z" fill="rgb(183,50,146)" shape-rendering="crispEdges"/><path d="M351.4,544.8L416,598.1L410.1,533.6Z" fill="rgb(180,60,164)" shape-rendering="crispEdges"/><path d="M274,600.9L322.3,598.7L254.3,537.9Z" fill="rgb(197,61,152)" shape-rendering="crispEdges"/><path d="M439.2,-40.4L365.6,-36.6L448.9,76.3Z" fill="rgb(219,60,105)" shape-rendering="crispEdges"/><path d="M190.4,629.4L274,600.9L254.3,537.9Z" fill="rgb(204,63,149)" shape-rendering="crispEdges"/><path d="M639.6,262.2L610.7,178.8L544.3,283.2Z" fill="rgb(196,55,143)" shape-rendering="crispEdges"/><path d="M-38.3,144.5L-24.9,241.1L86.8,149.8Z" fill="rgb(237,60,76)" shape-rendering="crispEdges"/><path d="M-41.7,351.6L-5.7,418.3L103.7,336.9Z" fill="rgb(213,48,93)" shape-rendering="crispEdges"/><path d="M604.2,343.7L639.6,262.2L544.3,283.2Z" fill="rgb(184,49,144)" shape-rendering="crispEdges"/><path d="M-41.7,351.6L103.7,336.9L55.8,260.2Z" fill="rgb(211,40,84)" shape-rendering="crispEdges"/><path d="M83.3,442L53.4,513.2L150.9,524Z" fill="rgb(197,49,117)" shape-rendering="crispEdges"/><path d="M410.1,533.6L551,509L504.5,446Z" fill="rgb(171,64,177)" shape-rendering="crispEdges"/><path d="M504.5,446L624.2,459.7L532.6,367.8Z" fill="rgb(180,65,172)" shape-rendering="crispEdges"/><path d="M604.2,343.7L624.2,459.7L639.6,262.2Z" fill="rgb(191,65,165)" shape-rendering="crispEdges"/><path d="M530,591.8L551,509L410.1,533.6Z" fill="rgb(157,55,170)" shape-rendering="crispEdges"/><path d="M190.4,629.4L416,598.1L322.3,598.7Z" fill="rgb(194,61,156)" shape-rendering="crispEdges"/><path d="M322.3,598.7L416,598.1L351.4,544.8Z" fill="rgb(189,65,165)" shape-rendering="crispEdges"/><path d="M265.6,-29.4L145.4,-23.8L247.7,50.9Z" fill="rgb(239,63,82)" shape-rendering="crispEdges"/><path d="M-2.1,46.9L-38.3,144.5L86.8,149.8Z" fill="rgb(234,57,66)" shape-rendering="crispEdges"/><path d="M149.1,-79.7L145.4,-23.8L265.6,-29.4Z" fill="rgb(237,61,76)" shape-rendering="crispEdges"/><path d="M1.1,501.9L53.4,513.2L83.3,442Z" fill="rgb(200,49,110)" shape-rendering="crispEdges"/><path d="M150.9,524L190.4,629.4L254.3,537.9Z" fill="rgb(194,51,134)" shape-rendering="crispEdges"/><path d="M522.6,-12.7L439.2,-40.4L448.9,76.3Z" fill="rgb(193,38,97)" shape-rendering="crispEdges"/><path d="M522.6,-12.7L448.9,76.3L517,95.5Z" fill="rgb(205,56,118)" shape-rendering="crispEdges"/><path d="M-24.9,241.1L-41.7,351.6L55.8,260.2Z" fill="rgb(237,64,92)" shape-rendering="crispEdges"/><path d="M642,65.7L522.6,-12.7L517,95.5Z" fill="rgb(213,66,128)" shape-rendering="crispEdges"/><path d="M-2.1,46.9L86.8,149.8L101.1,69Z" fill="rgb(233,56,68)" shape-rendering="crispEdges"/><path d="M-91.2,362.1L-75.2,415.7L-41.7,351.6Z" fill="rgb(224,61,101)" shape-rendering="crispEdges"/><path d="M67.4,593.9L190.4,629.4L150.9,524Z" fill="rgb(206,62,135)" shape-rendering="crispEdges"/><path d="M274,600.9L190.4,629.4L322.3,598.7Z" fill="rgb(199,59,149)" shape-rendering="crispEdges"/><path d="M551,509L624.2,459.7L504.5,446Z" fill="rgb(165,59,171)" shape-rendering="crispEdges"/><path d="M-75.2,415.7L1.1,501.9L-5.7,418.3Z" fill="rgb(195,37,92)" shape-rendering="crispEdges"/><path d="M-5.7,418.3L1.1,501.9L83.3,442Z" fill="rgb(200,44,101)" shape-rendering="crispEdges"/><path d="M53.4,513.2L67.4,593.9L150.9,524Z" fill="rgb(188,41,113)" shape-rendering="crispEdges"/><path d="M496.8,-88.4L417.9,-78.3L439.2,-40.4Z" fill="rgb(209,53,104)" shape-rendering="crispEdges"/><path d="M439.2,-40.4L417.9,-78.3L365.6,-36.6Z" fill="rgb(212,51,97)" shape-rendering="crispEdges"/><path d="M365.6,-36.6L358,-92.4L265.6,-29.4Z" fill="rgb(218,49,86)" shape-rendering="crispEdges"/><path d="M417.9,-78.3L358,-92.4L365.6,-36.6Z" fill="rgb(216,52,95)" shape-rendering="crispEdges"/><path d="M77.2,-37L-2.1,46.9L101.1,69Z" fill="rgb(233,56,59)" shape-rendering="crispEdges"/><path d="M416,598.1L530,591.8L410.1,533.6Z" fill="rgb(166,56,166)" shape-rendering="crispEdges"/><path d="M551,509L639.9,544L624.2,459.7Z" fill="rgb(160,59,175)" shape-rendering="crispEdges"/><path d="M643.3,608.3L530,591.8L416,598.1Z" fill="rgb(158,58,175)" shape-rendering="crispEdges"/><path d="M149.1,-79.7L77.2,-37L145.4,-23.8Z" fill="rgb(232,55,64)" shape-rendering="crispEdges"/><path d="M145.4,-23.8L77.2,-37L101.1,69Z" fill="rgb(225,48,57)" shape-rendering="crispEdges"/><path d="M269.9,-129.6L149.1,-79.7L265.6,-29.4Z" fill="rgb(219,41,69)" shape-rendering="crispEdges"/><path d="M-10.1,603.4L67.4,593.9L53.4,513.2Z" fill="rgb(208,61,122)" shape-rendering="crispEdges"/><path d="M610.7,178.8L642,65.7L517,95.5Z" fill="rgb(202,56,128)" shape-rendering="crispEdges"/><path d="M639.6,262.2L642,65.7L610.7,178.8Z" fill="rgb(210,67,143)" shape-rendering="crispEdges"/><path d="M-41.7,351.6L-75.2,415.7L-5.7,418.3Z" fill="rgb(200,36,86)" shape-rendering="crispEdges"/><path d="M1.1,501.9L-10.1,603.4L53.4,513.2Z" fill="rgb(199,51,111)" shape-rendering="crispEdges"/><path d="M-91.2,362.1L-41.7,351.6L-127.5,250.2Z" fill="rgb(228,59,92)" shape-rendering="crispEdges"/><path d="M-127.5,250.2L-41.7,351.6L-24.9,241.1Z" fill="rgb(214,38,74)" shape-rendering="crispEdges"/><path d="M496.8,-88.4L269.9,-129.6L358,-92.4Z" fill="rgb(223,60,100)" shape-rendering="crispEdges"/><path d="M358,-92.4L269.9,-129.6L265.6,-29.4Z" fill="rgb(223,50,84)" shape-rendering="crispEdges"/><path d="M590.3,-37.7L496.8,-88.4L522.6,-12.7Z" fill="rgb(201,53,110)" shape-rendering="crispEdges"/><path d="M522.6,-12.7L496.8,-88.4L439.2,-40.4Z" fill="rgb(208,57,110)" shape-rendering="crispEdges"/><path d="M417.9,-78.3L496.8,-88.4L358,-92.4Z" fill="rgb(202,43,93)" shape-rendering="crispEdges"/><path d="M-121.8,59.6L-93.9,146.8L-38.3,144.5Z" fill="rgb(234,58,65)" shape-rendering="crispEdges"/><path d="M-38.3,144.5L-93.9,146.8L-24.9,241.1Z" fill="rgb(214,34,59)" shape-rendering="crispEdges"/><path d="M642,65.7L590.3,-37.7L522.6,-12.7Z" fill="rgb(199,50,109)" shape-rendering="crispEdges"/><path d="M530,591.8L639.9,544L551,509Z" fill="rgb(147,47,164)" shape-rendering="crispEdges"/><path d="M624.2,459.7L639.9,544L639.6,262.2Z" fill="rgb(182,67,174)" shape-rendering="crispEdges"/><path d="M639.6,262.2L643.3,608.3L642,65.7Z" fill="rgb(176,43,141)" shape-rendering="crispEdges"/><path d="M-93.9,146.8L-127.5,250.2L-24.9,241.1Z" fill="rgb(233,57,77)" shape-rendering="crispEdges"/><path d="M-91.2,362.1L-87.8,520.2L-75.2,415.7Z" fill="rgb(216,58,105)" shape-rendering="crispEdges"/><path d="M55.3,-96.3L77.2,-37L149.1,-79.7Z" fill="rgb(225,47,54)" shape-rendering="crispEdges"/><path d="M55.3,-96.3L-3.9,-32L77.2,-37Z" fill="rgb(223,46,46)" shape-rendering="crispEdges"/><path d="M77.2,-37L-3.9,-32L-2.1,46.9Z" fill="rgb(235,58,51)" shape-rendering="crispEdges"/><path d="M-2.1,46.9L-121.8,59.6L-38.3,144.5Z" fill="rgb(228,51,55)" shape-rendering="crispEdges"/><path d="M269.9,-129.6L55.3,-96.3L149.1,-79.7Z" fill="rgb(231,54,68)" shape-rendering="crispEdges"/><path d="M-87.8,520.2L-10.1,603.4L1.1,501.9Z" fill="rgb(201,53,110)" shape-rendering="crispEdges"/><path d="M67.4,593.9L-10.1,603.4L190.4,629.4Z" fill="rgb(197,50,119)" shape-rendering="crispEdges"/><path d="M-127.5,250.2L-87.8,520.2L-91.2,362.1Z" fill="rgb(216,52,94)" shape-rendering="crispEdges"/><path d="M-75.2,415.7L-87.8,520.2L1.1,501.9Z" fill="rgb(203,50,105)" shape-rendering="crispEdges"/><path d="M642,65.7L598.4,-87.6L590.3,-37.7Z" fill="rgb(212,63,119)" shape-rendering="crispEdges"/><path d="M590.3,-37.7L598.4,-87.6L496.8,-88.4Z" fill="rgb(189,38,100)" shape-rendering="crispEdges"/><path d="M496.8,-88.4L598.4,-87.6L269.9,-129.6Z" fill="rgb(217,62,111)" shape-rendering="crispEdges"/><path d="M190.4,629.4L643.3,608.3L416,598.1Z" fill="rgb(180,64,170)" shape-rendering="crispEdges"/><path d="M530,591.8L643.3,608.3L639.9,544Z" fill="rgb(151,51,168)" shape-rendering="crispEdges"/><path d="M639.9,544L643.3,608.3L639.6,262.2Z" fill="rgb(153,46,160)" shape-rendering="crispEdges"/><path d="M-93.9,146.8L-121.8,59.6L-127.5,250.2Z" fill="rgb(221,43,60)" shape-rendering="crispEdges"/><path d="M-127.2,5.9L-121.8,59.6L-2.1,46.9Z" fill="rgb(226,48,47)" shape-rendering="crispEdges"/><path d="M-127.2,5.9L-2.1,46.9L-3.9,-32Z" fill="rgb(224,47,41)" shape-rendering="crispEdges"/><path d="M269.9,-129.6L1.2,-105.6L55.3,-96.3Z" fill="rgb(237,61,65)" shape-rendering="crispEdges"/><path d="M55.3,-96.3L1.2,-105.6L-3.9,-32Z" fill="rgb(215,35,36)" shape-rendering="crispEdges"/><path d="M-127.3,-125L-127.2,5.9L-3.9,-32Z" fill="rgb(225,47,40)" shape-rendering="crispEdges"/><path d="M-121.8,59.6L-127.2,5.9L-127.5,250.2Z" fill="rgb(235,58,63)" shape-rendering="crispEdges"/><path d="M-10.1,603.4L-96.6,620.6L190.4,629.4Z" fill="rgb(212,65,124)" shape-rendering="crispEdges"/><path d="M-87.8,520.2L-96.6,620.6L-10.1,603.4Z" fill="rgb(203,54,112)" shape-rendering="crispEdges"/><path d="M-127.5,250.2L-96.6,620.6L-87.8,520.2Z" fill="rgb(205,51,103)" shape-rendering="crispEdges"/><path d="M269.9,-129.6L-127.3,-125L1.2,-105.6Z" fill="rgb(238,61,57)" shape-rendering="crispEdges"/><path d="M1.2,-105.6L-127.3,-125L-3.9,-32Z" fill="rgb(233,56,46)" shape-rendering="crispEdges"/><path d="M-127.2,5.9L-127.3,-125L-127.5,250.2Z" fill="rgb(216,36,41)" shape-rendering="crispEdges"/></svg>