<svg xmlns="http://www.w3.org/2000/svg" width="512" height="512" viewBox="0 0 512 512"><path d="M279.1,278.9L333,326.6L343.8,265.7Z" fill="rgb(234,234,234)" shape-rendering="crispEdges"/><path d="M279.1,278.9L257.8,347.2L333,326.6Z" fill="rgb(217,217,217)" shape-rendering="crispEdges"/><path d="M257.8,347.2L261.6,426.8L333,326.6Z" fill="rgb(229,229,229)" shape-rendering="crispEdges"/><path d="M461.5,319.7L451.6,237.4L343.8,265.7Z" fill="rgb(217,217,217)" shape-rendering="crispEdges"/><path d="M343.8,265.7L278.8,149.8L279.1,278.9Z" fill="rgb(214,214,214)" shape-rendering="crispEdges"/><path d="M461.5,319.7L343.8,265.7L333,326.6Z" fill="rgb(220,220,220)" shape-rendering="crispEdges"/><path d="M359.2,140.2L278.8,149.8L343.8,265.7Z" fill="rgb(219,219,219)" shape-rendering="crispEdges"/><path d="M279.1,278.9L164.5,238.9L257.8,347.2Z" fill="rgb(228,228,228)" shape-rendering="crispEdges"/><path d="M444,428.6L461.5,319.7L333,326.6Z" fill="rgb(234,234,234)" shape-rendering="crispEdges"/><path d="M424.1,159.4L359.2,140.2L343.8,265.7Z" fill="rgb(229,229,229)" shape-rendering="crispEdges"/><path d="M184.4,192.7L164.5,238.9L279.1,278.9Z" fill="rgb(218,218,218)" shape-rendering="crispEdges"/><path d="M257.8,347.2L145.1,369L261.6,426.8Z" fill="rgb(217,217,217)" shape-rendering="crispEdges"/><path d="M278.8,149.8L184.4,192.7L279.1,278.9Z" fill="rgb(225,225,225)" shape-rendering="crispEdges"/><path d="M451.6,237.4L424.1,159.4L343.8,265.7Z" fill="rgb(213,213,213)" shape-rendering="crispEdges"/><path d="M261.6,426.8L372.7,462.7L333,326.6Z" fill="rgb(228,228,228)" shape-rendering="crispEdges"/><path d="M164.5,238.9L145.1,369L257.8,347.2Z" fill="rgb(223,223,223)" shape-rendering="crispEdges"/><path d="M372.7,462.7L444,428.6L333,326.6Z" fill="rgb(229,229,229)" shape-rendering="crispEdges"/><path d="M415.6,90.5L332.3,72.5L359.2,140.2Z" fill="rgb(217,217,217)" shape-rendering="crispEdges"/><path d="M359.2,140.2L332.3,72.5L278.8,149.8Z" fill="rgb(236,236,236)" shape-rendering="crispEdges"/><path d="M278.8,149.8L154.3,102.8L184.4,192.7Z" fill="rgb(234,234,234)" shape-rendering="crispEdges"/><path d="M444,428.6L525.9,357.8L461.5,319.7Z" fill="rgb(225,225,225)" shape-rendering="crispEdges"/><path d="M554.5,251L529.5,192L451.6,237.4Z" fill="rgb(231,231,231)" shape-rendering="crispEdges"/><path d="M544.6,53.3L415.6,90.5L424.1,159.4Z" fill="rgb(225,225,225)" shape-rendering="crispEdges"/><path d="M424.1,159.4L415.6,90.5L359.2,140.2Z" fill="rgb(214,214,214)" shape-rendering="crispEdges"/><path d="M529.5,192L424.1,159.4L451.6,237.4Z" fill="rgb(226,226,226)" shape-rendering="crispEdges"/><path d="M164.5,238.9L100.7,366.8L145.1,369Z" fill="rgb(213,213,213)" shape-rendering="crispEdges"/><path d="M145.1,369L150.8,461L261.6,426.8Z" fill="rgb(215,215,215)" shape-rendering="crispEdges"/><path d="M53.7,252.3L100.7,366.8L164.5,238.9Z" fill="rgb(224,224,224)" shape-rendering="crispEdges"/><path d="M332.3,72.5L250.3,70.1L278.8,149.8Z" fill="rgb(233,233,233)" shape-rendering="crispEdges"/><path d="M261.6,426.8L323.6,523.3L372.7,462.7Z" fill="rgb(233,233,233)" shape-rendering="crispEdges"/><path d="M372.7,462.7L442.8,508.7L444,428.6Z" fill="rgb(233,233,233)" shape-rendering="crispEdges"/><path d="M257.3,522.4L323.6,523.3L261.6,426.8Z" fill="rgb(235,235,235)" shape-rendering="crispEdges"/><path d="M100.7,366.8L150.8,461L145.1,369Z" fill="rgb(234,234,234)" shape-rendering="crispEdges"/><path d="M554.5,251L451.6,237.4L461.5,319.7Z" fill="rgb(235,235,235)" shape-rendering="crispEdges"/><path d="M150.8,461L257.3,522.4L261.6,426.8Z" fill="rgb(229,229,229)" shape-rendering="crispEdges"/><path d="M154.3,102.8L99.8,189.4L184.4,192.7Z" fill="rgb(235,235,235)" shape-rendering="crispEdges"/><path d="M184.4,192.7L99.8,189.4L164.5,238.9Z" fill="rgb(213,213,213)" shape-rendering="crispEdges"/><path d="M525.9,357.8L554.5,251L461.5,319.7Z" fill="rgb(237,237,237)" shape-rendering="crispEdges"/><path d="M444,428.6L525,418.5L525.9,357.8Z" fill="rgb(229,229,229)" shape-rendering="crispEdges"/><path d="M525.9,357.8L616.3,332.6L554.5,251Z" fill="rgb(215,215,215)" shape-rendering="crispEdges"/><path d="M537.4,503.5L525,418.5L444,428.6Z" fill="rgb(230,230,230)" shape-rendering="crispEdges"/><path d="M250.3,70.1L154.3,102.8L278.8,149.8Z" fill="rgb(227,227,227)" shape-rendering="crispEdges"/><path d="M323.6,523.3L442.8,508.7L372.7,462.7Z" fill="rgb(217,217,217)" shape-rendering="crispEdges"/><path d="M14.8,231.5L53.7,252.3L99.8,189.4Z" fill="rgb(224,224,224)" shape-rendering="crispEdges"/><path d="M99.8,189.4L53.7,252.3L164.5,238.9Z" fill="rgb(221,221,221)" shape-rendering="crispEdges"/><path d="M250.3,70.1L180.6,-5.3L154.3,102.8Z" fill="rgb(228,228,228)" shape-rendering="crispEdges"/><path d="M332.3,72.5L263.7,14.9L250.3,70.1Z" fill="rgb(222,222,222)" shape-rendering="crispEdges"/><path d="M343.8,6.6L263.7,14.9L332.3,72.5Z" fill="rgb(217,217,217)" shape-rendering="crispEdges"/><path d="M-37.1,369.6L58,413.3L100.7,366.8Z" fill="rgb(225,225,225)" shape-rendering="crispEdges"/><path d="M100.7,366.8L58,413.3L150.8,461Z" fill="rgb(215,215,215)" shape-rendering="crispEdges"/><path d="M150.8,461L137.9,520.4L257.3,522.4Z" fill="rgb(222,222,222)" shape-rendering="crispEdges"/><path d="M448.7,-2.9L343.8,6.6L415.6,90.5Z" fill="rgb(232,232,232)" shape-rendering="crispEdges"/><path d="M415.6,90.5L343.8,6.6L332.3,72.5Z" fill="rgb(224,224,224)" shape-rendering="crispEdges"/><path d="M90.7,504.8L137.9,520.4L150.8,461Z" fill="rgb(225,225,225)" shape-rendering="crispEdges"/><path d="M525,418.5L616.3,332.6L525.9,357.8Z" fill="rgb(222,222,222)" shape-rendering="crispEdges"/><path d="M614.3,232.8L589.7,160.2L529.5,192Z" fill="rgb(231,231,231)" shape-rendering="crispEdges"/><path d="M590.9,456.3L616.3,332.6L525,418.5Z" fill="rgb(236,236,236)" shape-rendering="crispEdges"/><path d="M614.3,232.8L529.5,192L554.5,251Z" fill="rgb(236,236,236)" shape-rendering="crispEdges"/><path d="M529.5,192L544.6,53.3L424.1,159.4Z" fill="rgb(220,220,220)" shape-rendering="crispEdges"/><path d="M616.3,332.6L614.3,232.8L554.5,251Z" fill="rgb(213,213,213)" shape-rendering="crispEdges"/><path d="M553.9,620.1L537.4,503.5L442.8,508.7Z" fill="rgb(236,236,236)" shape-rendering="crispEdges"/><path d="M442.8,508.7L537.4,503.5L444,428.6Z" fill="rgb(237,237,237)" shape-rendering="crispEdges"/><path d="M67.6,103.7L14.8,231.5L99.8,189.4Z" fill="rgb(230,230,230)" shape-rendering="crispEdges"/><path d="M53.7,252.3L-37.1,369.6L100.7,366.8Z" fill="rgb(217,217,217)" shape-rendering="crispEdges"/><path d="M58,413.3L90.7,504.8L150.8,461Z" fill="rgb(235,235,235)" shape-rendering="crispEdges"/><path d="M154.3,102.8L67.6,103.7L99.8,189.4Z" fill="rgb(229,229,229)" shape-rendering="crispEdges"/><path d="M61.1,8L67.6,103.7L154.3,102.8Z" fill="rgb(236,236,236)" shape-rendering="crispEdges"/><path d="M537.4,503.5L590.9,456.3L525,418.5Z" fill="rgb(221,221,221)" shape-rendering="crispEdges"/><path d="M544.6,53.3L448.7,-2.9L415.6,90.5Z" fill="rgb(226,226,226)" shape-rendering="crispEdges"/><path d="M253.1,-105.8L180.6,-5.3L263.7,14.9Z" fill="rgb(236,236,236)" shape-rendering="crispEdges"/><path d="M263.7,14.9L180.6,-5.3L250.3,70.1Z" fill="rgb(219,219,219)" shape-rendering="crispEdges"/><path d="M322.6,-88.5L263.7,14.9L343.8,6.6Z" fill="rgb(223,223,223)" shape-rendering="crispEdges"/><path d="M589.7,160.2L544.6,53.3L529.5,192Z" fill="rgb(231,231,231)" shape-rendering="crispEdges"/><path d="M141.1,616.1L257.3,522.4L137.9,520.4Z" fill="rgb(215,215,215)" shape-rendering="crispEdges"/><path d="M141.1,616.1L268.5,622.3L257.3,522.4Z" fill="rgb(231,231,231)" shape-rendering="crispEdges"/><path d="M257.3,522.4L268.5,622.3L323.6,523.3Z" fill="rgb(213,213,213)" shape-rendering="crispEdges"/><path d="M323.6,523.3L432.8,621.5L442.8,508.7Z" fill="rgb(233,233,233)" shape-rendering="crispEdges"/><path d="M268.5,622.3L336.1,629L323.6,523.3Z" fill="rgb(223,223,223)" shape-rendering="crispEdges"/><path d="M336.1,629L432.8,621.5L323.6,523.3Z" fill="rgb(231,231,231)" shape-rendering="crispEdges"/><path d="M537.4,503.5L587.4,547.2L590.9,456.3Z" fill="rgb(226,226,226)" shape-rendering="crispEdges"/><path d="M14.8,231.5L-37.1,369.6L53.7,252.3Z" fill="rgb(234,234,234)" shape-rendering="crispEdges"/><path d="M58,413.3L-29.8,534.9L90.7,504.8Z" fill="rgb(219,219,219)" shape-rendering="crispEdges"/><path d="M69,602.4L141.1,616.1L137.9,520.4Z" fill="rgb(217,217,217)" shape-rendering="crispEdges"/><path d="M268.5,622.3L-37.1,639.6L336.1,629Z" fill="rgb(213,213,213)" shape-rendering="crispEdges"/><path d="M69,602.4L137.9,520.4L90.7,504.8Z" fill="rgb(228,228,228)" shape-rendering="crispEdges"/><path d="M553.9,620.1L587.4,547.2L537.4,503.5Z" fill="rgb(228,228,228)" shape-rendering="crispEdges"/><path d="M590.9,456.3L632.4,607.3L616.3,332.6Z" fill="rgb(215,215,215)" shape-rendering="crispEdges"/><path d="M592.7,-37.7L515.3,-23.3L544.6,53.3Z" fill="rgb(217,217,217)" shape-rendering="crispEdges"/><path d="M544.6,53.3L515.3,-23.3L448.7,-2.9Z" fill="rgb(215,215,215)" shape-rendering="crispEdges"/><path d="M411.3,-102.7L322.6,-88.5L343.8,6.6Z" fill="rgb(223,223,223)" shape-rendering="crispEdges"/><path d="M-37.1,369.6L-38.8,414.7L58,413.3Z" fill="rgb(230,230,230)" shape-rendering="crispEdges"/><path d="M411.3,-102.7L343.8,6.6L448.7,-2.9Z" fill="rgb(230,230,230)" shape-rendering="crispEdges"/><path d="M103,-108.1L61.1,8L180.6,-5.3Z" fill="rgb(230,230,230)" shape-rendering="crispEdges"/><path d="M180.6,-5.3L61.1,8L154.3,102.8Z" fill="rgb(218,218,218)" shape-rendering="crispEdges"/><path d="M67.6,103.7L-34.5,140.8L14.8,231.5Z" fill="rgb(231,231,231)" shape-rendering="crispEdges"/><path d="M14.8,231.5L-104.6,247.2L-37.1,369.6Z" fill="rgb(216,216,216)" shape-rendering="crispEdges"/><path d="M-29.7,52L-34.5,140.8L67.6,103.7Z" fill="rgb(233,233,233)" shape-rendering="crispEdges"/><path d="M-37.1,369.6L-103.4,374.2L-38.8,414.7Z" fill="rgb(229,229,229)" shape-rendering="crispEdges"/><path d="M589.7,160.2L641.6,69.9L544.6,53.3Z" fill="rgb(233,233,233)" shape-rendering="crispEdges"/><path d="M614.3,232.8L641.6,69.9L589.7,160.2Z" fill="rgb(213,213,213)" shape-rendering="crispEdges"/><path d="M616.3,332.6L641.6,69.9L614.3,232.8Z" fill="rgb(228,228,228)" shape-rendering="crispEdges"/><path d="M-29.8,534.9L69,602.4L90.7,504.8Z" fill="rgb(231,231,231)" shape-rendering="crispEdges"/><path d="M322.6,-88.5L253.1,-105.8L263.7,14.9Z" fill="rgb(222,222,222)" shape-rendering="crispEdges"/><path d="M432.8,621.5L553.9,620.1L442.8,508.7Z" fill="rgb(235,235,235)" shape-rendering="crispEdges"/><path d="M336.1,629L553.9,620.1L432.8,621.5Z" fill="rgb(221,221,221)" shape-rendering="crispEdges"/><path d="M515.3,-23.3L411.3,-102.7L448.7,-2.9Z" fill="rgb(228,228,228)" shape-rendering="crispEdges"/><path d="M322.6,-88.5L411.3,-102.7L253.1,-105.8Z" fill="rgb(236,236,236)" shape-rendering="crispEdges"/><path d="M543,-92.6L411.3,-102.7L515.3,-23.3Z" fill="rgb(222,222,222)" shape-rendering="crispEdges"/><path d="M61.1,8L-29.7,52L67.6,103.7Z" fill="rgb(224,224,224)" shape-rendering="crispEdges"/><path d="M-20.7,13.2L-29.7,52L61.1,8Z" fill="rgb(232,232,232)" shape-rendering="crispEdges"/><path d="M-38.8,414.7L-29.8,534.9L58,413.3Z" fill="rgb(227,227,227)" shape-rendering="crispEdges"/><path d="M-101,167.6L14.8,231.5L-34.5,140.8Z" fill="rgb(225,225,225)" shape-rendering="crispEdges"/><path d="M-101,167.6L-104.6,247.2L14.8,231.5Z" fill="rgb(220,220,220)" shape-rendering="crispEdges"/><path d="M-38.8,414.7L-103.4,443.2L-29.8,534.9Z" fill="rgb(238,238,238)" shape-rendering="crispEdges"/><path d="M637.3,-108.9L179.5,-108.9L253.1,-105.8Z" fill="rgb(218,218,218)" shape-rendering="crispEdges"/><path d="M253.1,-105.8L179.5,-108.9L180.6,-5.3Z" fill="rgb(226,226,226)" shape-rendering="crispEdges"/><path d="M-104.6,247.2L-103.4,374.2L-37.1,369.6Z" fill="rgb(232,232,232)" shape-rendering="crispEdges"/><path d="M641.6,69.9L592.7,-37.7L544.6,53.3Z" fill="rgb(213,213,213)" shape-rendering="crispEdges"/><path d="M-125.7,73L-101,167.6L-34.5,140.8Z" fill="rgb(227,227,227)" shape-rendering="crispEdges"/><path d="M-42.3,-101.1L-20.7,13.2L61.1,8Z" fill="rgb(222,222,222)" shape-rendering="crispEdges"/><path d="M-29.7,52L-125.7,73L-34.5,140.8Z" fill="rgb(237,237,237)" shape-rendering="crispEdges"/><path d="M-123.7,620.5L-103.4,443.2L-103.4,374.2Z" fill="rgb(227,227,227)" shape-rendering="crispEdges"/><path d="M-103.4,374.2L-103.4,443.2L-38.8,414.7Z" fill="rgb(217,217,217)" shape-rendering="crispEdges"/><path d="M592.7,-37.7L543,-92.6L515.3,-23.3Z" fill="rgb(216,216,216)" shape-rendering="crispEdges"/><path d="M553.9,620.1L632.4,607.3L587.4,547.2Z" fill="rgb(237,237,237)" shape-rendering="crispEdges"/><path d="M587.4,547.2L632.4,607.3L590.9,456.3Z" fill="rgb(223,223,223)" shape-rendering="crispEdges"/><path d="M616.3,332.6L632.4,607.3L641.6,69.9Z" fill="rgb(217,217,217)" shape-rendering="crispEdges"/><path d="M179.5,-108.9L103,-108.1L180.6,-5.3Z" fill="rgb(223,223,223)" shape-rendering="crispEdges"/><path d="M-103.4,443.2L-99.9,522.9L-29.8,534.9Z" fill="rgb(229,229,229)" shape-rendering="crispEdges"/><path d="M-29.8,534.9L-37.1,639.6L69,602.4Z" fill="rgb(220,220,220)" shape-rendering="crispEdges"/><path d="M-101,167.6L-125.7,73L-104.6,247.2Z" fill="rgb(220,220,220)" shape-rendering="crispEdges"/><path d="M-104.6,247.2L-125.7,73L-103.4,374.2Z" fill="rgb(236,236,236)" shape-rendering="crispEdges"/><path d="M-103.4,443.2L-123.7,620.5L-99.9,522.9Z" fill="rgb(226,226,226)" shape-rendering="crispEdges"/><path d="M-131.6,-5.8L-125.7,73L-29.7,52Z" fill="rgb(224,224,224)" shape-rendering="crispEdges"/><path d="M-131.6,-5.8L-29.7,52L-20.7,13.2Z" fill="rgb(220,220,220)" shape-rendering="crispEdges"/><path d="M-123.7,620.5L-37.1,639.6L-29.8,534.9Z" fill="rgb(228,228,228)" shape-rendering="crispEdges"/><path d="M69,602.4L-37.1,639.6L141.1,616.1Z" fill="rgb(228,228,228)" shape-rendering="crispEdges"/><path d="M141.1,616.1L-37.1,639.6L268.5,622.3Z" fill="rgb(229,229,229)" shape-rendering="crispEdges"/><path d="M641.6,69.9L637.3,-108.9L592.7,-37.7Z" fill="rgb(229,229,229)" shape-rendering="crispEdges"/><path d="M592.7,-37.7L637.3,-108.9L543,-92.6Z" fill="rgb(221,221,221)" shape-rendering="crispEdges"/><path d="M543,-92.6L637.3,-108.9L411.3,-102.7Z" fill="rgb(228,228,228)" shape-rendering="crispEdges"/><path d="M411.3,-102.7L637.3,-108.9L253.1,-105.8Z" fill="rgb(223,223,223)" shape-rendering="crispEdges"/><path d="M103,-108.1L-42.3,-101.1L61.1,8Z" fill="rgb(215,215,215)" shape-rendering="crispEdges"/><path d="M-42.3,-101.1L-131.6,-5.8L-20.7,13.2Z" fill="rgb(233,233,233)" shape-rendering="crispEdges"/><path d="M-125.7,73L-123.7,620.5L-103.4,374.2Z" fill="rgb(223,223,223)" shape-rendering="crispEdges"/><path d="M-131.6,-5.8L-123.7,620.5L-125.7,73Z" fill="rgb(213,213,213)" shape-rendering="crispEdges"/><path d="M-99.9,522.9L-123.7,620.5L-29.8,534.9Z" fill="rgb(232,232,232)" shape-rendering="crispEdges"/><path d="M103,-108.1L-131.2,-130.9L-42.3,-101.1Z" fill="rgb(232,232,232)" shape-rendering="crispEdges"/><path d="M-42.3,-101.1L-131.2,-130.9L-131.6,-5.8Z" fill="rgb(235,235,235)" shape-rendering="crispEdges"/><path d="M179.5,-108.9L-131.2,-130.9L103,-108.1Z" fill="rgb(230,230,230)" shape-rendering="crispEdges"/><path d="M637.3,-108.9L-131.2,-130.9L179.5,-108.9Z" fill="rgb(233,233,233)" shape-rendering="crispEdges"/></svg>